<svg width="132" height="88" viewBox="0 0 132 88" fill="none" xmlns="http://www.w3.org/2000/svg">
<g clip-path="url(#clip0_4002_19218)">
<path d="M0 50.2857H44C64.9943 50.2857 81.5886 66.88 81.7143 88H94.2857C94.16 66.88 110.754 50.2857 132 50.2857V37.7143C110.88 37.7143 94.2857 21.12 94.2857 0H81.7143C81.7143 21.12 65.12 37.7143 44 37.7143H0V50.2857ZM88 63.8629C83.4743 55.6914 76.3086 48.5257 68.1371 44C76.3086 39.4743 83.4743 32.3086 88 24.1371C92.5257 32.3086 99.6914 39.4743 107.863 44C99.6914 48.5257 92.5257 55.6914 88 63.8629Z" fill="black"/>
</g>
<defs>
<clipPath id="clip0_4002_19218">
<rect width="132" height="88" fill="white"/>
</clipPath>
</defs>
</svg>
