<svg width="100" height="14" viewBox="0 0 100 14" fill="none" xmlns="http://www.w3.org/2000/svg">
<path fill-rule="evenodd" clip-rule="evenodd" d="M41.1775 -1.52588e-05C43.6879 -1.14068e-05 46.1441 1.65398 46.1441 5.24073V8.32571C46.1441 11.8939 43.6879 13.5666 41.1775 13.5666H41.0692C38.5227 13.5666 36.1026 11.8939 36.1026 8.32571V5.24073C36.1027 1.65398 38.5227 -1.52588e-05 41.0692 -1.52588e-05H41.1775ZM41.0692 1.95134C39.4438 1.95134 38.1254 3.19652 38.1254 5.18505V8.38153C38.1254 10.3701 39.4438 11.6152 41.0692 11.6152H41.1775C42.803 11.6152 44.1214 10.3701 44.1214 8.38153V5.18505C44.1214 3.19652 42.803 1.95135 41.1775 1.95134H41.0692Z" fill="white"/>
<path fill-rule="evenodd" clip-rule="evenodd" d="M13.5452 0.278812C13.5452 3.40093 15.9292 5.85402 18.9633 5.85406V7.71252C15.9111 7.71256 13.5271 10.1656 13.5452 13.2878H11.7392C11.7212 10.1656 9.33719 7.71254 6.32114 7.71252H0V5.85406H6.32114C9.35524 5.85405 11.7392 3.40095 11.7392 0.278812H13.5452ZM12.6423 3.84688C11.9921 5.05486 10.9626 6.11425 9.78864 6.78329C10.9626 7.45232 11.9921 8.51158 12.6423 9.71956C13.2924 8.5116 14.3219 7.45232 15.4958 6.78329C14.3219 6.11425 13.2924 5.05486 12.6423 3.84688Z" fill="white"/>
<path d="M31.9848 10.5187H32.2195V0.278812H34.1701V13.2878H31.0999L26.8737 3.04776H26.6209V13.2878H24.6704V0.278812H27.7586L31.9848 10.5187Z" fill="white"/>
<path d="M53.8559 7.35941H54.1448L57.2151 0.278812H59.9423V13.2878H57.9917V3.75398H57.7207L54.6686 10.7975H53.3321L50.2799 3.75398H50.009V13.2878H48.0585V0.278812H50.7856L53.8559 7.35941Z" fill="white"/>
<path d="M67.7984 2.13713H65.9021V11.4293H67.7984V13.2878H62.0552V11.4293H63.9517V2.13713H62.0552V0.278812H67.7984V2.13713Z" fill="white"/>
<path d="M77.2259 10.5187H77.4608V0.278812H79.4112V13.2878H76.3409L72.1149 3.04776H71.8619V13.2878H69.9115V0.278812H72.9999L77.2259 10.5187Z" fill="white"/>
<path fill-rule="evenodd" clip-rule="evenodd" d="M91.5518 13.2878H89.476L89.4712 13.271L89.4708 13.2692C89.4689 13.2626 89.4669 13.2561 89.465 13.2495C88.957 11.4973 87.8753 10.6302 86.202 10.6302C84.5405 10.6302 83.4387 11.5037 82.933 13.2692L82.9323 13.2687L82.927 13.2878H80.856L84.6487 0.278812H87.7551L91.5518 13.2878ZM85.495 4.28351H85.4936L83.9875 9.56724C84.5642 9.07824 85.3829 8.78917 86.202 8.78917C87.0208 8.78919 87.8215 9.06011 88.415 9.56608L88.3687 9.40323L88.3692 9.40366L86.9094 4.28351H86.9089L86.3284 2.24863H86.0754L85.495 4.28351Z" fill="white"/>
<path d="M94.9431 11.4293H100V13.2878H92.9926V0.278812H94.9431V11.4293Z" fill="white"/>
</svg>
