<svg width="696" height="92" viewBox="0 0 696 92" fill="none" xmlns="http://www.w3.org/2000/svg">
<path fill-rule="evenodd" clip-rule="evenodd" d="M286.596 0C304.068 2.60786e-05 321.163 11.1978 321.163 35.4805V56.3662C321.163 80.5233 304.068 91.8476 286.596 91.8477H285.842C268.118 91.8477 251.274 80.5234 251.274 56.3662V35.4805C251.275 11.1977 268.118 0 285.842 0H286.596ZM285.842 13.2109C274.529 13.2109 265.353 21.6409 265.353 35.1035V56.7441C265.353 70.2067 274.529 78.6367 285.842 78.6367H286.596C297.909 78.6367 307.085 70.2067 307.085 56.7441V35.1035C307.085 21.641 297.909 13.211 286.596 13.2109H285.842Z" fill="black"/>
<path fill-rule="evenodd" clip-rule="evenodd" d="M94.2744 1.8877C94.2746 23.0249 110.867 39.6326 131.984 39.6328V52.2148C110.741 52.2151 94.1489 68.8227 94.2744 89.96H81.7051C81.5792 68.8226 64.9868 52.2149 43.9951 52.2148H0V39.6328H43.9951C65.1125 39.6327 81.7049 23.0249 81.7051 1.8877H94.2744ZM87.9902 26.0439C83.465 34.2221 76.2994 41.3944 68.1289 45.9238C76.2994 50.4533 83.465 57.6246 87.9902 65.8027C92.5154 57.6247 99.6802 50.4532 107.851 45.9238C99.6801 41.3944 92.5154 34.2221 87.9902 26.0439Z" fill="black"/>
<path d="M222.614 71.2129H224.248V1.8877H237.824V89.96H216.455L187.041 20.6338H185.281V89.96H171.706V1.8877H193.2L222.614 71.2129Z" fill="black"/>
<path d="M374.837 49.8242H376.848L398.217 1.8877H417.198V89.96H403.622V25.415H401.736L380.493 73.1006H371.191L349.948 25.415H348.062V89.96H334.487V1.8877H353.468L374.837 49.8242Z" fill="black"/>
<path d="M471.877 14.4688H458.679V77.3779H471.877V89.96H431.904V77.3779H445.104V14.4688H431.904V1.8877H471.877V14.4688Z" fill="black"/>
<path d="M537.492 71.2129H539.127V1.8877H552.702V89.96H531.333L501.92 20.6338H500.159V89.96H486.584V1.8877H508.079L537.492 71.2129Z" fill="black"/>
<path fill-rule="evenodd" clip-rule="evenodd" d="M637.2 89.96H622.753L622.72 89.8467L622.717 89.834C622.704 89.7896 622.69 89.7454 622.677 89.7012C619.14 77.838 611.612 71.9679 599.966 71.9678C588.402 71.9678 580.734 77.8815 577.214 89.834L577.209 89.8311L577.172 89.96H562.758L589.155 1.8877H610.775L637.2 89.96ZM595.045 29H595.035L584.553 64.7715C588.567 61.4609 594.265 59.5039 599.966 59.5039C605.664 59.504 611.237 61.3382 615.368 64.7637L615.046 63.6611L615.05 63.6641L604.89 29H604.886L600.846 15.2236H599.085L595.045 29Z" fill="black"/>
<path d="M660.804 77.3779H696V89.96H647.229V1.8877H660.804V77.3779Z" fill="black"/>
</svg>
